<?xml version="1.0" encoding="UTF-8" standalone="no"?>
<!DOCTYPE svg PUBLIC "-//W3C//DTD SVG 1.1//EN"
 "http://www.w3.org/Graphics/SVG/1.1/DTD/svg11.dtd">
<!-- Generated by graphviz version 2.47.0 (20210316.0004)
 -->
<!-- Title: dbml Pages: 1 -->
<svg width="1967pt" height="2846pt"
 viewBox="0.00 0.00 1966.56 2846.35" xmlns="http://www.w3.org/2000/svg" xmlns:xlink="http://www.w3.org/1999/xlink">
<g id="graph0" class="graph" transform="scale(1 1) rotate(0) translate(4 2842.35)">
<title>dbml</title>
<!-- CarInventory -->
<g id="CarInventory" class="node">
<title>CarInventory</title>
<ellipse fill="none" stroke="black" stroke-width="0" cx="1055.65" cy="-1109.96" rx="253.29" ry="299.63"/>
<polygon fill="#1d71b8" stroke="transparent" points="878.65,-1259.96 878.65,-1319.96 1232.65,-1319.96 1232.65,-1259.96 878.65,-1259.96"/>
<polygon fill="none" stroke="#29235c" points="878.65,-1259.96 878.65,-1319.96 1232.65,-1319.96 1232.65,-1259.96 878.65,-1259.96"/>
<text text-anchor="start" x="901.83" y="-1281.16" font-family="Helvetica,sans-Serif" font-weight="bold" font-size="32.00" fill="#ffffff"> &#160;&#160;&#160;&#160;&#160;&#160;CarInventory &#160;&#160;&#160;&#160;&#160;&#160;</text>
<polygon fill="#e7e2dd" stroke="transparent" points="878.65,-1199.96 878.65,-1259.96 1232.65,-1259.96 1232.65,-1199.96 878.65,-1199.96"/>
<polygon fill="none" stroke="#29235c" points="878.65,-1199.96 878.65,-1259.96 1232.65,-1259.96 1232.65,-1199.96 878.65,-1199.96"/>
<text text-anchor="start" x="889.65" y="-1221.16" font-family="Helvetica,sans-Serif" font-weight="bold" font-size="32.00" fill="#29235c">id</text>
<text text-anchor="start" x="914.54" y="-1221.16" font-family="Helvetica,sans-Serif" font-size="32.00" fill="#29235c"> &#160;&#160;&#160;</text>
<text text-anchor="start" x="1079.43" y="-1221.16" font-family="Helvetica,sans-Serif" font-style="italic" font-size="32.00" fill="#29235c">INTEGER</text>
<polygon fill="#e7e2dd" stroke="transparent" points="878.65,-1139.96 878.65,-1199.96 1232.65,-1199.96 1232.65,-1139.96 878.65,-1139.96"/>
<polygon fill="none" stroke="#29235c" points="878.65,-1139.96 878.65,-1199.96 1232.65,-1199.96 1232.65,-1139.96 878.65,-1139.96"/>
<text text-anchor="start" x="889.65" y="-1160.16" font-family="Helvetica,sans-Serif" font-size="32.00" fill="#29235c">vin &#160;&#160;&#160;</text>
<text text-anchor="start" x="1065.22" y="-1161.16" font-family="Helvetica,sans-Serif" font-style="italic" font-size="32.00" fill="#29235c">VARCHAR</text>
<polygon fill="#e7e2dd" stroke="transparent" points="878.65,-1079.96 878.65,-1139.96 1232.65,-1139.96 1232.65,-1079.96 878.65,-1079.96"/>
<polygon fill="none" stroke="#29235c" points="878.65,-1079.96 878.65,-1139.96 1232.65,-1139.96 1232.65,-1079.96 878.65,-1079.96"/>
<text text-anchor="start" x="889.65" y="-1100.16" font-family="Helvetica,sans-Serif" font-size="32.00" fill="#29235c">model_id &#160;&#160;&#160;</text>
<text text-anchor="start" x="1079.43" y="-1101.16" font-family="Helvetica,sans-Serif" font-style="italic" font-size="32.00" fill="#29235c">INTEGER</text>
<polygon fill="#e7e2dd" stroke="transparent" points="878.65,-1019.96 878.65,-1079.96 1232.65,-1079.96 1232.65,-1019.96 878.65,-1019.96"/>
<polygon fill="none" stroke="#29235c" points="878.65,-1019.96 878.65,-1079.96 1232.65,-1079.96 1232.65,-1019.96 878.65,-1019.96"/>
<text text-anchor="start" x="889.54" y="-1040.16" font-family="Helvetica,sans-Serif" font-size="32.00" fill="#29235c">purchase_date &#160;&#160;&#160;</text>
<text text-anchor="start" x="1136.48" y="-1041.16" font-family="Helvetica,sans-Serif" font-style="italic" font-size="32.00" fill="#29235c">DATE</text>
<polygon fill="#e7e2dd" stroke="transparent" points="878.65,-959.96 878.65,-1019.96 1232.65,-1019.96 1232.65,-959.96 878.65,-959.96"/>
<polygon fill="none" stroke="#29235c" points="878.65,-959.96 878.65,-1019.96 1232.65,-1019.96 1232.65,-959.96 878.65,-959.96"/>
<text text-anchor="start" x="889.65" y="-980.16" font-family="Helvetica,sans-Serif" font-size="32.00" fill="#29235c">status &#160;&#160;&#160;</text>
<text text-anchor="start" x="1065.22" y="-981.16" font-family="Helvetica,sans-Serif" font-style="italic" font-size="32.00" fill="#29235c">VARCHAR</text>
<polygon fill="#e7e2dd" stroke="transparent" points="878.65,-899.96 878.65,-959.96 1232.65,-959.96 1232.65,-899.96 878.65,-899.96"/>
<polygon fill="none" stroke="#29235c" points="878.65,-899.96 878.65,-959.96 1232.65,-959.96 1232.65,-899.96 878.65,-899.96"/>
<text text-anchor="start" x="889.65" y="-920.16" font-family="Helvetica,sans-Serif" font-size="32.00" fill="#29235c">sale_price &#160;&#160;&#160;</text>
<text text-anchor="start" x="1118.53" y="-921.16" font-family="Helvetica,sans-Serif" font-style="italic" font-size="32.00" fill="#29235c">FLOAT</text>
<polygon fill="none" stroke="#29235c" stroke-width="2" points="877.65,-898.96 877.65,-1320.96 1233.65,-1320.96 1233.65,-898.96 877.65,-898.96"/>
</g>
<!-- CarModel -->
<g id="CarModel" class="node">
<title>CarModel</title>
<ellipse fill="none" stroke="black" stroke-width="0" cx="1656.63" cy="-1139.96" rx="287.17" ry="257.27"/>
<polygon fill="#1d71b8" stroke="transparent" points="1455.63,-1259.96 1455.63,-1319.96 1857.63,-1319.96 1857.63,-1259.96 1455.63,-1259.96"/>
<polygon fill="none" stroke="#29235c" points="1455.63,-1259.96 1455.63,-1319.96 1857.63,-1319.96 1857.63,-1259.96 1455.63,-1259.96"/>
<text text-anchor="start" x="1525.05" y="-1281.16" font-family="Helvetica,sans-Serif" font-weight="bold" font-size="32.00" fill="#ffffff"> &#160;&#160;&#160;&#160;&#160;&#160;CarModel &#160;&#160;&#160;&#160;&#160;&#160;</text>
<polygon fill="#e7e2dd" stroke="transparent" points="1455.63,-1199.96 1455.63,-1259.96 1857.63,-1259.96 1857.63,-1199.96 1455.63,-1199.96"/>
<polygon fill="none" stroke="#29235c" points="1455.63,-1199.96 1455.63,-1259.96 1857.63,-1259.96 1857.63,-1199.96 1455.63,-1199.96"/>
<text text-anchor="start" x="1466.63" y="-1221.16" font-family="Helvetica,sans-Serif" font-weight="bold" font-size="32.00" fill="#29235c">id</text>
<text text-anchor="start" x="1491.52" y="-1221.16" font-family="Helvetica,sans-Serif" font-size="32.00" fill="#29235c"> &#160;&#160;&#160;</text>
<text text-anchor="start" x="1704.41" y="-1221.16" font-family="Helvetica,sans-Serif" font-style="italic" font-size="32.00" fill="#29235c">INTEGER</text>
<polygon fill="#e7e2dd" stroke="transparent" points="1455.63,-1139.96 1455.63,-1199.96 1857.63,-1199.96 1857.63,-1139.96 1455.63,-1139.96"/>
<polygon fill="none" stroke="#29235c" points="1455.63,-1139.96 1455.63,-1199.96 1857.63,-1199.96 1857.63,-1139.96 1455.63,-1139.96"/>
<text text-anchor="start" x="1466.63" y="-1160.16" font-family="Helvetica,sans-Serif" font-size="32.00" fill="#29235c">model_name &#160;&#160;&#160;</text>
<text text-anchor="start" x="1690.2" y="-1161.16" font-family="Helvetica,sans-Serif" font-style="italic" font-size="32.00" fill="#29235c">VARCHAR</text>
<polygon fill="#e7e2dd" stroke="transparent" points="1455.63,-1079.96 1455.63,-1139.96 1857.63,-1139.96 1857.63,-1079.96 1455.63,-1079.96"/>
<polygon fill="none" stroke="#29235c" points="1455.63,-1079.96 1455.63,-1139.96 1857.63,-1139.96 1857.63,-1079.96 1455.63,-1079.96"/>
<text text-anchor="start" x="1466.6" y="-1100.16" font-family="Helvetica,sans-Serif" font-size="32.00" fill="#29235c">manufacturer &#160;&#160;&#160;</text>
<text text-anchor="start" x="1690.41" y="-1101.16" font-family="Helvetica,sans-Serif" font-style="italic" font-size="32.00" fill="#29235c">VARCHAR</text>
<polygon fill="#e7e2dd" stroke="transparent" points="1455.63,-1019.96 1455.63,-1079.96 1857.63,-1079.96 1857.63,-1019.96 1455.63,-1019.96"/>
<polygon fill="none" stroke="#29235c" points="1455.63,-1019.96 1455.63,-1079.96 1857.63,-1079.96 1857.63,-1019.96 1455.63,-1019.96"/>
<text text-anchor="start" x="1466.63" y="-1040.16" font-family="Helvetica,sans-Serif" font-size="32.00" fill="#29235c">year &#160;&#160;&#160;</text>
<text text-anchor="start" x="1704.41" y="-1041.16" font-family="Helvetica,sans-Serif" font-style="italic" font-size="32.00" fill="#29235c">INTEGER</text>
<polygon fill="#e7e2dd" stroke="transparent" points="1455.63,-959.96 1455.63,-1019.96 1857.63,-1019.96 1857.63,-959.96 1455.63,-959.96"/>
<polygon fill="none" stroke="#29235c" points="1455.63,-959.96 1455.63,-1019.96 1857.63,-1019.96 1857.63,-959.96 1455.63,-959.96"/>
<text text-anchor="start" x="1466.63" y="-980.16" font-family="Helvetica,sans-Serif" font-size="32.00" fill="#29235c">base_price &#160;&#160;&#160;</text>
<text text-anchor="start" x="1743.51" y="-981.16" font-family="Helvetica,sans-Serif" font-style="italic" font-size="32.00" fill="#29235c">FLOAT</text>
<polygon fill="none" stroke="#29235c" stroke-width="2" points="1454.63,-958.96 1454.63,-1320.96 1858.63,-1320.96 1858.63,-958.96 1454.63,-958.96"/>
</g>
<!-- CarInventory&#45;&gt;CarModel -->
<!-- CarInventory&#45;&gt;CarModel -->
<g id="edge2" class="edge">
<title>CarInventory:e&#45;&gt;CarModel:w</title>
<path fill="none" stroke="#29235c" stroke-width="3" d="M1233.65,-1109.96C1341.91,-1109.96 1342.91,-1222.58 1444.48,-1229.62"/>
<polygon fill="#29235c" stroke="#29235c" stroke-width="3" points="1444.51,-1233.12 1454.63,-1229.96 1444.75,-1226.12 1444.51,-1233.12"/>
<text text-anchor="middle" x="1460.85" y="-1201.16" font-family="Helvetica,sans-Serif" font-size="32.00" fill="#29235c">*</text>
<text text-anchor="middle" x="1242.54" y="-1081.16" font-family="Helvetica,sans-Serif" font-size="32.00" fill="#29235c">1</text>
</g>
<!-- Customer -->
<g id="Customer" class="node">
<title>Customer</title>
<ellipse fill="none" stroke="black" stroke-width="0" cx="1055.65" cy="-214.96" rx="216.25" ry="214.92"/>
<polygon fill="#1d71b8" stroke="transparent" points="904.65,-304.96 904.65,-364.96 1206.65,-364.96 1206.65,-304.96 904.65,-304.96"/>
<polygon fill="none" stroke="#29235c" points="904.65,-304.96 904.65,-364.96 1206.65,-364.96 1206.65,-304.96 904.65,-304.96"/>
<text text-anchor="start" x="924.07" y="-326.16" font-family="Helvetica,sans-Serif" font-weight="bold" font-size="32.00" fill="#ffffff"> &#160;&#160;&#160;&#160;&#160;&#160;Customer &#160;&#160;&#160;&#160;&#160;&#160;</text>
<polygon fill="#e7e2dd" stroke="transparent" points="904.65,-244.96 904.65,-304.96 1206.65,-304.96 1206.65,-244.96 904.65,-244.96"/>
<polygon fill="none" stroke="#29235c" points="904.65,-244.96 904.65,-304.96 1206.65,-304.96 1206.65,-244.96 904.65,-244.96"/>
<text text-anchor="start" x="915.65" y="-266.16" font-family="Helvetica,sans-Serif" font-weight="bold" font-size="32.00" fill="#29235c">id</text>
<text text-anchor="start" x="940.54" y="-266.16" font-family="Helvetica,sans-Serif" font-size="32.00" fill="#29235c"> &#160;&#160;&#160;</text>
<text text-anchor="start" x="1053.43" y="-266.16" font-family="Helvetica,sans-Serif" font-style="italic" font-size="32.00" fill="#29235c">INTEGER</text>
<polygon fill="#e7e2dd" stroke="transparent" points="904.65,-184.96 904.65,-244.96 1206.65,-244.96 1206.65,-184.96 904.65,-184.96"/>
<polygon fill="none" stroke="#29235c" points="904.65,-184.96 904.65,-244.96 1206.65,-244.96 1206.65,-184.96 904.65,-184.96"/>
<text text-anchor="start" x="915.65" y="-205.16" font-family="Helvetica,sans-Serif" font-size="32.00" fill="#29235c">name &#160;&#160;&#160;</text>
<text text-anchor="start" x="1039.22" y="-206.16" font-family="Helvetica,sans-Serif" font-style="italic" font-size="32.00" fill="#29235c">VARCHAR</text>
<polygon fill="#e7e2dd" stroke="transparent" points="904.65,-124.96 904.65,-184.96 1206.65,-184.96 1206.65,-124.96 904.65,-124.96"/>
<polygon fill="none" stroke="#29235c" points="904.65,-124.96 904.65,-184.96 1206.65,-184.96 1206.65,-124.96 904.65,-124.96"/>
<text text-anchor="start" x="915.65" y="-145.16" font-family="Helvetica,sans-Serif" font-size="32.00" fill="#29235c">email &#160;&#160;&#160;</text>
<text text-anchor="start" x="1039.22" y="-146.16" font-family="Helvetica,sans-Serif" font-style="italic" font-size="32.00" fill="#29235c">VARCHAR</text>
<polygon fill="#e7e2dd" stroke="transparent" points="904.65,-64.96 904.65,-124.96 1206.65,-124.96 1206.65,-64.96 904.65,-64.96"/>
<polygon fill="none" stroke="#29235c" points="904.65,-64.96 904.65,-124.96 1206.65,-124.96 1206.65,-64.96 904.65,-64.96"/>
<text text-anchor="start" x="915.39" y="-85.16" font-family="Helvetica,sans-Serif" font-size="32.00" fill="#29235c">phone &#160;&#160;&#160;</text>
<text text-anchor="start" x="1039.44" y="-86.16" font-family="Helvetica,sans-Serif" font-style="italic" font-size="32.00" fill="#29235c">VARCHAR</text>
<polygon fill="none" stroke="#29235c" stroke-width="2" points="903.65,-63.96 903.65,-365.96 1207.65,-365.96 1207.65,-63.96 903.65,-63.96"/>
</g>
<!-- Dealership -->
<g id="Dealership" class="node">
<title>Dealership</title>
<ellipse fill="none" stroke="black" stroke-width="0" cx="1055.65" cy="-2090.96" rx="234.1" ry="214.92"/>
<polygon fill="#1d71b8" stroke="transparent" points="892.65,-2180.96 892.65,-2240.96 1219.65,-2240.96 1219.65,-2180.96 892.65,-2180.96"/>
<polygon fill="none" stroke="#29235c" points="892.65,-2180.96 892.65,-2240.96 1219.65,-2240.96 1219.65,-2180.96 892.65,-2180.96"/>
<text text-anchor="start" x="917.45" y="-2202.16" font-family="Helvetica,sans-Serif" font-weight="bold" font-size="32.00" fill="#ffffff"> &#160;&#160;&#160;&#160;&#160;&#160;Dealership &#160;&#160;&#160;&#160;&#160;&#160;</text>
<polygon fill="#e7e2dd" stroke="transparent" points="892.65,-2120.96 892.65,-2180.96 1219.65,-2180.96 1219.65,-2120.96 892.65,-2120.96"/>
<polygon fill="none" stroke="#29235c" points="892.65,-2120.96 892.65,-2180.96 1219.65,-2180.96 1219.65,-2120.96 892.65,-2120.96"/>
<text text-anchor="start" x="903.65" y="-2142.16" font-family="Helvetica,sans-Serif" font-weight="bold" font-size="32.00" fill="#29235c">id</text>
<text text-anchor="start" x="928.54" y="-2142.16" font-family="Helvetica,sans-Serif" font-size="32.00" fill="#29235c"> &#160;&#160;&#160;</text>
<text text-anchor="start" x="1066.43" y="-2142.16" font-family="Helvetica,sans-Serif" font-style="italic" font-size="32.00" fill="#29235c">INTEGER</text>
<polygon fill="#e7e2dd" stroke="transparent" points="892.65,-2060.96 892.65,-2120.96 1219.65,-2120.96 1219.65,-2060.96 892.65,-2060.96"/>
<polygon fill="none" stroke="#29235c" points="892.65,-2060.96 892.65,-2120.96 1219.65,-2120.96 1219.65,-2060.96 892.65,-2060.96"/>
<text text-anchor="start" x="903.65" y="-2081.16" font-family="Helvetica,sans-Serif" font-size="32.00" fill="#29235c">name &#160;&#160;&#160;</text>
<text text-anchor="start" x="1052.22" y="-2082.16" font-family="Helvetica,sans-Serif" font-style="italic" font-size="32.00" fill="#29235c">VARCHAR</text>
<polygon fill="#e7e2dd" stroke="transparent" points="892.65,-2000.96 892.65,-2060.96 1219.65,-2060.96 1219.65,-2000.96 892.65,-2000.96"/>
<polygon fill="none" stroke="#29235c" points="892.65,-2000.96 892.65,-2060.96 1219.65,-2060.96 1219.65,-2000.96 892.65,-2000.96"/>
<text text-anchor="start" x="903.46" y="-2021.16" font-family="Helvetica,sans-Serif" font-size="32.00" fill="#29235c">address &#160;&#160;&#160;</text>
<text text-anchor="start" x="1052.44" y="-2022.16" font-family="Helvetica,sans-Serif" font-style="italic" font-size="32.00" fill="#29235c">VARCHAR</text>
<polygon fill="#e7e2dd" stroke="transparent" points="892.65,-1940.96 892.65,-2000.96 1219.65,-2000.96 1219.65,-1940.96 892.65,-1940.96"/>
<polygon fill="none" stroke="#29235c" points="892.65,-1940.96 892.65,-2000.96 1219.65,-2000.96 1219.65,-1940.96 892.65,-1940.96"/>
<text text-anchor="start" x="903.65" y="-1961.16" font-family="Helvetica,sans-Serif" font-size="32.00" fill="#29235c">phone &#160;&#160;&#160;</text>
<text text-anchor="start" x="1052.22" y="-1962.16" font-family="Helvetica,sans-Serif" font-style="italic" font-size="32.00" fill="#29235c">VARCHAR</text>
<polygon fill="none" stroke="#29235c" stroke-width="2" points="891.15,-1939.96 891.15,-2241.96 1220.15,-2241.96 1220.15,-1939.96 891.15,-1939.96"/>
</g>
<!-- DealershipEmployee -->
<g id="DealershipEmployee" class="node">
<title>DealershipEmployee</title>
<ellipse fill="none" stroke="black" stroke-width="0" cx="378.3" cy="-2440.96" rx="314.83" ry="172.57"/>
<polygon fill="#1d71b8" stroke="transparent" points="158.3,-2500.96 158.3,-2560.96 599.3,-2560.96 599.3,-2500.96 158.3,-2500.96"/>
<polygon fill="none" stroke="#29235c" points="158.3,-2500.96 158.3,-2560.96 599.3,-2560.96 599.3,-2500.96 158.3,-2500.96"/>
<text text-anchor="start" x="168.98" y="-2522.16" font-family="Helvetica,sans-Serif" font-weight="bold" font-size="32.00" fill="#ffffff"> &#160;&#160;&#160;&#160;&#160;&#160;DealershipEmployee &#160;&#160;&#160;&#160;&#160;&#160;</text>
<polygon fill="#e7e2dd" stroke="transparent" points="158.3,-2440.96 158.3,-2500.96 599.3,-2500.96 599.3,-2440.96 158.3,-2440.96"/>
<polygon fill="none" stroke="#29235c" points="158.3,-2440.96 158.3,-2500.96 599.3,-2500.96 599.3,-2440.96 158.3,-2440.96"/>
<text text-anchor="start" x="169.3" y="-2462.16" font-family="Helvetica,sans-Serif" font-weight="bold" font-size="32.00" fill="#29235c">id</text>
<text text-anchor="start" x="194.19" y="-2462.16" font-family="Helvetica,sans-Serif" font-size="32.00" fill="#29235c"> &#160;&#160;&#160;</text>
<text text-anchor="start" x="446.08" y="-2462.16" font-family="Helvetica,sans-Serif" font-style="italic" font-size="32.00" fill="#29235c">INTEGER</text>
<polygon fill="#e7e2dd" stroke="transparent" points="158.3,-2380.96 158.3,-2440.96 599.3,-2440.96 599.3,-2380.96 158.3,-2380.96"/>
<polygon fill="none" stroke="#29235c" points="158.3,-2380.96 158.3,-2440.96 599.3,-2440.96 599.3,-2380.96 158.3,-2380.96"/>
<text text-anchor="start" x="169.3" y="-2401.16" font-family="Helvetica,sans-Serif" font-size="32.00" fill="#29235c">employee_id &#160;&#160;&#160;</text>
<text text-anchor="start" x="446.08" y="-2402.16" font-family="Helvetica,sans-Serif" font-style="italic" font-size="32.00" fill="#29235c">INTEGER</text>
<polygon fill="#e7e2dd" stroke="transparent" points="158.3,-2320.96 158.3,-2380.96 599.3,-2380.96 599.3,-2320.96 158.3,-2320.96"/>
<polygon fill="none" stroke="#29235c" points="158.3,-2320.96 158.3,-2380.96 599.3,-2380.96 599.3,-2320.96 158.3,-2320.96"/>
<text text-anchor="start" x="169.3" y="-2341.16" font-family="Helvetica,sans-Serif" font-size="32.00" fill="#29235c">dealership_id &#160;&#160;&#160;</text>
<text text-anchor="start" x="446.08" y="-2342.16" font-family="Helvetica,sans-Serif" font-style="italic" font-size="32.00" fill="#29235c">INTEGER</text>
<polygon fill="none" stroke="#29235c" stroke-width="2" points="156.8,-2319.96 156.8,-2561.96 599.8,-2561.96 599.8,-2319.96 156.8,-2319.96"/>
</g>
<!-- DealershipEmployee&#45;&gt;Dealership -->
<!-- DealershipEmployee&#45;&gt;Dealership -->
<g id="edge4" class="edge">
<title>DealershipEmployee:e&#45;&gt;Dealership:w</title>
<path fill="none" stroke="#29235c" stroke-width="3" d="M600.3,-2350.96C753.84,-2350.96 735.52,-2159.84 881.33,-2151.26"/>
<polygon fill="#29235c" stroke="#29235c" stroke-width="3" points="881.75,-2154.75 891.65,-2150.96 881.55,-2147.75 881.75,-2154.75"/>
<text text-anchor="middle" x="897.87" y="-2150.96" font-family="Helvetica,sans-Serif" font-size="32.00" fill="#29235c">*</text>
<text text-anchor="middle" x="591.41" y="-2322.16" font-family="Helvetica,sans-Serif" font-size="32.00" fill="#29235c">1</text>
</g>
<!-- Employee -->
<g id="Employee" class="node">
<title>Employee</title>
<ellipse fill="none" stroke="black" stroke-width="0" cx="1055.65" cy="-2580.96" rx="231.45" ry="257.27"/>
<polygon fill="#1d71b8" stroke="transparent" points="894.65,-2700.96 894.65,-2760.96 1217.65,-2760.96 1217.65,-2700.96 894.65,-2700.96"/>
<polygon fill="none" stroke="#29235c" points="894.65,-2700.96 894.65,-2760.96 1217.65,-2760.96 1217.65,-2700.96 894.65,-2700.96"/>
<text text-anchor="start" x="922.77" y="-2722.16" font-family="Helvetica,sans-Serif" font-weight="bold" font-size="32.00" fill="#ffffff"> &#160;&#160;&#160;&#160;&#160;&#160;Employee &#160;&#160;&#160;&#160;&#160;&#160;</text>
<polygon fill="#e7e2dd" stroke="transparent" points="894.65,-2640.96 894.65,-2700.96 1217.65,-2700.96 1217.65,-2640.96 894.65,-2640.96"/>
<polygon fill="none" stroke="#29235c" points="894.65,-2640.96 894.65,-2700.96 1217.65,-2700.96 1217.65,-2640.96 894.65,-2640.96"/>
<text text-anchor="start" x="905.65" y="-2662.16" font-family="Helvetica,sans-Serif" font-weight="bold" font-size="32.00" fill="#29235c">id</text>
<text text-anchor="start" x="930.54" y="-2662.16" font-family="Helvetica,sans-Serif" font-size="32.00" fill="#29235c"> &#160;&#160;&#160;</text>
<text text-anchor="start" x="1064.43" y="-2662.16" font-family="Helvetica,sans-Serif" font-style="italic" font-size="32.00" fill="#29235c">INTEGER</text>
<polygon fill="#e7e2dd" stroke="transparent" points="894.65,-2580.96 894.65,-2640.96 1217.65,-2640.96 1217.65,-2580.96 894.65,-2580.96"/>
<polygon fill="none" stroke="#29235c" points="894.65,-2580.96 894.65,-2640.96 1217.65,-2640.96 1217.65,-2580.96 894.65,-2580.96"/>
<text text-anchor="start" x="905.65" y="-2601.16" font-family="Helvetica,sans-Serif" font-size="32.00" fill="#29235c">name &#160;&#160;&#160;</text>
<text text-anchor="start" x="1050.22" y="-2602.16" font-family="Helvetica,sans-Serif" font-style="italic" font-size="32.00" fill="#29235c">VARCHAR</text>
<polygon fill="#e7e2dd" stroke="transparent" points="894.65,-2520.96 894.65,-2580.96 1217.65,-2580.96 1217.65,-2520.96 894.65,-2520.96"/>
<polygon fill="none" stroke="#29235c" points="894.65,-2520.96 894.65,-2580.96 1217.65,-2580.96 1217.65,-2520.96 894.65,-2520.96"/>
<text text-anchor="start" x="905.65" y="-2541.16" font-family="Helvetica,sans-Serif" font-size="32.00" fill="#29235c">email &#160;&#160;&#160;</text>
<text text-anchor="start" x="1050.22" y="-2542.16" font-family="Helvetica,sans-Serif" font-style="italic" font-size="32.00" fill="#29235c">VARCHAR</text>
<polygon fill="#e7e2dd" stroke="transparent" points="894.65,-2460.96 894.65,-2520.96 1217.65,-2520.96 1217.65,-2460.96 894.65,-2460.96"/>
<polygon fill="none" stroke="#29235c" points="894.65,-2460.96 894.65,-2520.96 1217.65,-2520.96 1217.65,-2460.96 894.65,-2460.96"/>
<text text-anchor="start" x="905.65" y="-2481.16" font-family="Helvetica,sans-Serif" font-size="32.00" fill="#29235c">phone &#160;&#160;&#160;</text>
<text text-anchor="start" x="1050.22" y="-2482.16" font-family="Helvetica,sans-Serif" font-style="italic" font-size="32.00" fill="#29235c">VARCHAR</text>
<polygon fill="#e7e2dd" stroke="transparent" points="894.65,-2400.96 894.65,-2460.96 1217.65,-2460.96 1217.65,-2400.96 894.65,-2400.96"/>
<polygon fill="none" stroke="#29235c" points="894.65,-2400.96 894.65,-2460.96 1217.65,-2460.96 1217.65,-2400.96 894.65,-2400.96"/>
<text text-anchor="start" x="905.24" y="-2421.16" font-family="Helvetica,sans-Serif" font-size="32.00" fill="#29235c">position &#160;&#160;&#160;</text>
<text text-anchor="start" x="1050.44" y="-2422.16" font-family="Helvetica,sans-Serif" font-style="italic" font-size="32.00" fill="#29235c">VARCHAR</text>
<polygon fill="none" stroke="#29235c" stroke-width="2" points="893.15,-2399.96 893.15,-2761.96 1218.15,-2761.96 1218.15,-2399.96 893.15,-2399.96"/>
</g>
<!-- DealershipEmployee&#45;&gt;Employee -->
<!-- DealershipEmployee&#45;&gt;Employee -->
<g id="edge6" class="edge">
<title>DealershipEmployee:e&#45;&gt;Employee:w</title>
<path fill="none" stroke="#29235c" stroke-width="3" d="M600.3,-2410.96C770.94,-2410.96 721.6,-2660.41 883.22,-2670.64"/>
<polygon fill="#29235c" stroke="#29235c" stroke-width="3" points="883.54,-2674.15 893.65,-2670.96 883.76,-2667.15 883.54,-2674.15"/>
<text text-anchor="middle" x="899.87" y="-2680.56" font-family="Helvetica,sans-Serif" font-size="32.00" fill="#29235c">*</text>
<text text-anchor="middle" x="591.41" y="-2382.16" font-family="Helvetica,sans-Serif" font-size="32.00" fill="#29235c">1</text>
</g>
<!-- InventoryPart -->
<g id="InventoryPart" class="node">
<title>InventoryPart</title>
<ellipse fill="none" stroke="black" stroke-width="0" cx="378.3" cy="-1429.96" rx="378.1" ry="214.92"/>
<polygon fill="#1d71b8" stroke="transparent" points="113.3,-1519.96 113.3,-1579.96 644.3,-1579.96 644.3,-1519.96 113.3,-1519.96"/>
<polygon fill="none" stroke="#29235c" points="113.3,-1519.96 113.3,-1579.96 644.3,-1579.96 644.3,-1519.96 113.3,-1519.96"/>
<text text-anchor="start" x="221.42" y="-1541.16" font-family="Helvetica,sans-Serif" font-weight="bold" font-size="32.00" fill="#ffffff"> &#160;&#160;&#160;&#160;&#160;&#160;InventoryPart &#160;&#160;&#160;&#160;&#160;&#160;</text>
<polygon fill="#e7e2dd" stroke="transparent" points="113.3,-1459.96 113.3,-1519.96 644.3,-1519.96 644.3,-1459.96 113.3,-1459.96"/>
<polygon fill="none" stroke="#29235c" points="113.3,-1459.96 113.3,-1519.96 644.3,-1519.96 644.3,-1459.96 113.3,-1459.96"/>
<text text-anchor="start" x="124.3" y="-1481.16" font-family="Helvetica,sans-Serif" font-weight="bold" font-size="32.00" fill="#29235c">id</text>
<text text-anchor="start" x="149.19" y="-1481.16" font-family="Helvetica,sans-Serif" font-size="32.00" fill="#29235c"> &#160;&#160;&#160;</text>
<text text-anchor="start" x="491.08" y="-1481.16" font-family="Helvetica,sans-Serif" font-style="italic" font-size="32.00" fill="#29235c">INTEGER</text>
<polygon fill="#e7e2dd" stroke="transparent" points="113.3,-1399.96 113.3,-1459.96 644.3,-1459.96 644.3,-1399.96 113.3,-1399.96"/>
<polygon fill="none" stroke="#29235c" points="113.3,-1399.96 113.3,-1459.96 644.3,-1459.96 644.3,-1399.96 113.3,-1399.96"/>
<text text-anchor="start" x="124.3" y="-1420.16" font-family="Helvetica,sans-Serif" font-size="32.00" fill="#29235c">inventory_id &#160;&#160;&#160;</text>
<text text-anchor="start" x="491.08" y="-1421.16" font-family="Helvetica,sans-Serif" font-style="italic" font-size="32.00" fill="#29235c">INTEGER</text>
<polygon fill="#e7e2dd" stroke="transparent" points="113.3,-1339.96 113.3,-1399.96 644.3,-1399.96 644.3,-1339.96 113.3,-1339.96"/>
<polygon fill="none" stroke="#29235c" points="113.3,-1339.96 113.3,-1399.96 644.3,-1399.96 644.3,-1339.96 113.3,-1339.96"/>
<text text-anchor="start" x="124.3" y="-1360.16" font-family="Helvetica,sans-Serif" font-size="32.00" fill="#29235c">part_id &#160;&#160;&#160;</text>
<text text-anchor="start" x="491.08" y="-1361.16" font-family="Helvetica,sans-Serif" font-style="italic" font-size="32.00" fill="#29235c">INTEGER</text>
<polygon fill="#e7e2dd" stroke="transparent" points="113.3,-1279.96 113.3,-1339.96 644.3,-1339.96 644.3,-1279.96 113.3,-1279.96"/>
<polygon fill="none" stroke="#29235c" points="113.3,-1279.96 113.3,-1339.96 644.3,-1339.96 644.3,-1279.96 113.3,-1279.96"/>
<text text-anchor="start" x="124.02" y="-1300.16" font-family="Helvetica,sans-Serif" font-size="32.00" fill="#29235c">used_in_maintenance &#160;&#160;&#160;</text>
<text text-anchor="start" x="471.92" y="-1301.16" font-family="Helvetica,sans-Serif" font-style="italic" font-size="32.00" fill="#29235c">DATETIME</text>
<polygon fill="none" stroke="#29235c" stroke-width="2" points="111.8,-1278.96 111.8,-1580.96 644.8,-1580.96 644.8,-1278.96 111.8,-1278.96"/>
</g>
<!-- InventoryPart&#45;&gt;CarInventory -->
<!-- InventoryPart&#45;&gt;CarInventory -->
<g id="edge8" class="edge">
<title>InventoryPart:e&#45;&gt;CarInventory:w</title>
<path fill="none" stroke="#29235c" stroke-width="3" d="M645.3,-1429.96C778.1,-1429.96 743.32,-1239.99 867.6,-1230.34"/>
<polygon fill="#29235c" stroke="#29235c" stroke-width="3" points="867.79,-1233.84 877.65,-1229.96 867.52,-1226.84 867.79,-1233.84"/>
<text text-anchor="middle" x="883.87" y="-1201.16" font-family="Helvetica,sans-Serif" font-size="32.00" fill="#29235c">*</text>
<text text-anchor="middle" x="636.41" y="-1401.16" font-family="Helvetica,sans-Serif" font-size="32.00" fill="#29235c">1</text>
</g>
<!-- Part -->
<g id="Part" class="node">
<title>Part</title>
<ellipse fill="none" stroke="black" stroke-width="0" cx="1055.65" cy="-1642.96" rx="253.29" ry="214.92"/>
<polygon fill="#1d71b8" stroke="transparent" points="878.65,-1732.96 878.65,-1792.96 1232.65,-1792.96 1232.65,-1732.96 878.65,-1732.96"/>
<polygon fill="none" stroke="#29235c" points="878.65,-1732.96 878.65,-1792.96 1232.65,-1792.96 1232.65,-1732.96 878.65,-1732.96"/>
<text text-anchor="start" x="964.06" y="-1754.16" font-family="Helvetica,sans-Serif" font-weight="bold" font-size="32.00" fill="#ffffff"> &#160;&#160;&#160;&#160;&#160;&#160;Part &#160;&#160;&#160;&#160;&#160;&#160;</text>
<polygon fill="#e7e2dd" stroke="transparent" points="878.65,-1672.96 878.65,-1732.96 1232.65,-1732.96 1232.65,-1672.96 878.65,-1672.96"/>
<polygon fill="none" stroke="#29235c" points="878.65,-1672.96 878.65,-1732.96 1232.65,-1732.96 1232.65,-1672.96 878.65,-1672.96"/>
<text text-anchor="start" x="889.65" y="-1694.16" font-family="Helvetica,sans-Serif" font-weight="bold" font-size="32.00" fill="#29235c">id</text>
<text text-anchor="start" x="914.54" y="-1694.16" font-family="Helvetica,sans-Serif" font-size="32.00" fill="#29235c"> &#160;&#160;&#160;</text>
<text text-anchor="start" x="1079.43" y="-1694.16" font-family="Helvetica,sans-Serif" font-style="italic" font-size="32.00" fill="#29235c">INTEGER</text>
<polygon fill="#e7e2dd" stroke="transparent" points="878.65,-1612.96 878.65,-1672.96 1232.65,-1672.96 1232.65,-1612.96 878.65,-1612.96"/>
<polygon fill="none" stroke="#29235c" points="878.65,-1612.96 878.65,-1672.96 1232.65,-1672.96 1232.65,-1612.96 878.65,-1612.96"/>
<text text-anchor="start" x="889.65" y="-1633.16" font-family="Helvetica,sans-Serif" font-size="32.00" fill="#29235c">name &#160;&#160;&#160;</text>
<text text-anchor="start" x="1065.22" y="-1634.16" font-family="Helvetica,sans-Serif" font-style="italic" font-size="32.00" fill="#29235c">VARCHAR</text>
<polygon fill="#e7e2dd" stroke="transparent" points="878.65,-1552.96 878.65,-1612.96 1232.65,-1612.96 1232.65,-1552.96 878.65,-1552.96"/>
<polygon fill="none" stroke="#29235c" points="878.65,-1552.96 878.65,-1612.96 1232.65,-1612.96 1232.65,-1552.96 878.65,-1552.96"/>
<text text-anchor="start" x="889.65" y="-1573.16" font-family="Helvetica,sans-Serif" font-size="32.00" fill="#29235c">price &#160;&#160;&#160;</text>
<text text-anchor="start" x="1118.53" y="-1574.16" font-family="Helvetica,sans-Serif" font-style="italic" font-size="32.00" fill="#29235c">FLOAT</text>
<polygon fill="#e7e2dd" stroke="transparent" points="878.65,-1492.96 878.65,-1552.96 1232.65,-1552.96 1232.65,-1492.96 878.65,-1492.96"/>
<polygon fill="none" stroke="#29235c" points="878.65,-1492.96 878.65,-1552.96 1232.65,-1552.96 1232.65,-1492.96 878.65,-1492.96"/>
<text text-anchor="start" x="889.52" y="-1513.16" font-family="Helvetica,sans-Serif" font-size="32.00" fill="#29235c">supplier_id &#160;&#160;&#160;</text>
<text text-anchor="start" x="1079.54" y="-1514.16" font-family="Helvetica,sans-Serif" font-style="italic" font-size="32.00" fill="#29235c">INTEGER</text>
<polygon fill="none" stroke="#29235c" stroke-width="2" points="877.65,-1491.96 877.65,-1793.96 1233.65,-1793.96 1233.65,-1491.96 877.65,-1491.96"/>
</g>
<!-- InventoryPart&#45;&gt;Part -->
<!-- InventoryPart&#45;&gt;Part -->
<g id="edge10" class="edge">
<title>InventoryPart:e&#45;&gt;Part:w</title>
<path fill="none" stroke="#29235c" stroke-width="3" d="M645.3,-1369.96C822.24,-1369.96 702.09,-1690.08 867.42,-1702.58"/>
<polygon fill="#29235c" stroke="#29235c" stroke-width="3" points="867.53,-1706.09 877.65,-1702.96 867.78,-1699.1 867.53,-1706.09"/>
<text text-anchor="middle" x="883.87" y="-1674.16" font-family="Helvetica,sans-Serif" font-size="32.00" fill="#29235c">*</text>
<text text-anchor="middle" x="636.41" y="-1341.16" font-family="Helvetica,sans-Serif" font-size="32.00" fill="#29235c">1</text>
</g>
<!-- Supplier -->
<g id="Supplier" class="node">
<title>Supplier</title>
<ellipse fill="none" stroke="black" stroke-width="0" cx="1656.63" cy="-1642.96" rx="301.87" ry="214.92"/>
<polygon fill="#1d71b8" stroke="transparent" points="1445.63,-1732.96 1445.63,-1792.96 1868.63,-1792.96 1868.63,-1732.96 1445.63,-1732.96"/>
<polygon fill="none" stroke="#29235c" points="1445.63,-1732.96 1445.63,-1792.96 1868.63,-1792.96 1868.63,-1732.96 1445.63,-1732.96"/>
<text text-anchor="start" x="1536.2" y="-1754.16" font-family="Helvetica,sans-Serif" font-weight="bold" font-size="32.00" fill="#ffffff"> &#160;&#160;&#160;&#160;&#160;&#160;Supplier &#160;&#160;&#160;&#160;&#160;&#160;</text>
<polygon fill="#e7e2dd" stroke="transparent" points="1445.63,-1672.96 1445.63,-1732.96 1868.63,-1732.96 1868.63,-1672.96 1445.63,-1672.96"/>
<polygon fill="none" stroke="#29235c" points="1445.63,-1672.96 1445.63,-1732.96 1868.63,-1732.96 1868.63,-1672.96 1445.63,-1672.96"/>
<text text-anchor="start" x="1456.63" y="-1694.16" font-family="Helvetica,sans-Serif" font-weight="bold" font-size="32.00" fill="#29235c">id</text>
<text text-anchor="start" x="1481.52" y="-1694.16" font-family="Helvetica,sans-Serif" font-size="32.00" fill="#29235c"> &#160;&#160;&#160;</text>
<text text-anchor="start" x="1715.41" y="-1694.16" font-family="Helvetica,sans-Serif" font-style="italic" font-size="32.00" fill="#29235c">INTEGER</text>
<polygon fill="#e7e2dd" stroke="transparent" points="1445.63,-1612.96 1445.63,-1672.96 1868.63,-1672.96 1868.63,-1612.96 1445.63,-1612.96"/>
<polygon fill="none" stroke="#29235c" points="1445.63,-1612.96 1445.63,-1672.96 1868.63,-1672.96 1868.63,-1612.96 1445.63,-1612.96"/>
<text text-anchor="start" x="1456.63" y="-1633.16" font-family="Helvetica,sans-Serif" font-size="32.00" fill="#29235c">name &#160;&#160;&#160;</text>
<text text-anchor="start" x="1701.2" y="-1634.16" font-family="Helvetica,sans-Serif" font-style="italic" font-size="32.00" fill="#29235c">VARCHAR</text>
<polygon fill="#e7e2dd" stroke="transparent" points="1445.63,-1552.96 1445.63,-1612.96 1868.63,-1612.96 1868.63,-1552.96 1445.63,-1552.96"/>
<polygon fill="none" stroke="#29235c" points="1445.63,-1552.96 1445.63,-1612.96 1868.63,-1612.96 1868.63,-1552.96 1445.63,-1552.96"/>
<text text-anchor="start" x="1456.63" y="-1573.16" font-family="Helvetica,sans-Serif" font-size="32.00" fill="#29235c">contact_email &#160;&#160;&#160;</text>
<text text-anchor="start" x="1701.2" y="-1574.16" font-family="Helvetica,sans-Serif" font-style="italic" font-size="32.00" fill="#29235c">VARCHAR</text>
<polygon fill="#e7e2dd" stroke="transparent" points="1445.63,-1492.96 1445.63,-1552.96 1868.63,-1552.96 1868.63,-1492.96 1445.63,-1492.96"/>
<polygon fill="none" stroke="#29235c" points="1445.63,-1492.96 1445.63,-1552.96 1868.63,-1552.96 1868.63,-1492.96 1445.63,-1492.96"/>
<text text-anchor="start" x="1456.4" y="-1513.16" font-family="Helvetica,sans-Serif" font-size="32.00" fill="#29235c">contact_phone &#160;&#160;&#160;</text>
<text text-anchor="start" x="1701.41" y="-1514.16" font-family="Helvetica,sans-Serif" font-style="italic" font-size="32.00" fill="#29235c">VARCHAR</text>
<polygon fill="none" stroke="#29235c" stroke-width="2" points="1444.13,-1491.96 1444.13,-1793.96 1869.13,-1793.96 1869.13,-1491.96 1444.13,-1491.96"/>
</g>
<!-- Part&#45;&gt;Supplier -->
<!-- Part&#45;&gt;Supplier -->
<g id="edge12" class="edge">
<title>Part:e&#45;&gt;Supplier:w</title>
<path fill="none" stroke="#29235c" stroke-width="3" d="M1233.65,-1522.96C1353.41,-1522.96 1323.25,-1692.91 1434.53,-1702.54"/>
<polygon fill="#29235c" stroke="#29235c" stroke-width="3" points="1434.49,-1706.04 1444.63,-1702.96 1434.78,-1699.04 1434.49,-1706.04"/>
<text text-anchor="middle" x="1450.85" y="-1674.16" font-family="Helvetica,sans-Serif" font-size="32.00" fill="#29235c">*</text>
<text text-anchor="middle" x="1242.54" y="-1494.16" font-family="Helvetica,sans-Serif" font-size="32.00" fill="#29235c">1</text>
</g>
<!-- Maintenance -->
<g id="Maintenance" class="node">
<title>Maintenance</title>
<ellipse fill="none" stroke="black" stroke-width="0" cx="378.3" cy="-969.96" rx="289.41" ry="214.92"/>
<polygon fill="#1d71b8" stroke="transparent" points="176.3,-1059.96 176.3,-1119.96 581.3,-1119.96 581.3,-1059.96 176.3,-1059.96"/>
<polygon fill="none" stroke="#29235c" points="176.3,-1059.96 176.3,-1119.96 581.3,-1119.96 581.3,-1059.96 176.3,-1059.96"/>
<text text-anchor="start" x="224.97" y="-1081.16" font-family="Helvetica,sans-Serif" font-weight="bold" font-size="32.00" fill="#ffffff"> &#160;&#160;&#160;&#160;&#160;&#160;Maintenance &#160;&#160;&#160;&#160;&#160;&#160;</text>
<polygon fill="#e7e2dd" stroke="transparent" points="176.3,-999.96 176.3,-1059.96 581.3,-1059.96 581.3,-999.96 176.3,-999.96"/>
<polygon fill="none" stroke="#29235c" points="176.3,-999.96 176.3,-1059.96 581.3,-1059.96 581.3,-999.96 176.3,-999.96"/>
<text text-anchor="start" x="187.3" y="-1021.16" font-family="Helvetica,sans-Serif" font-weight="bold" font-size="32.00" fill="#29235c">id</text>
<text text-anchor="start" x="212.19" y="-1021.16" font-family="Helvetica,sans-Serif" font-size="32.00" fill="#29235c"> &#160;&#160;&#160;</text>
<text text-anchor="start" x="428.08" y="-1021.16" font-family="Helvetica,sans-Serif" font-style="italic" font-size="32.00" fill="#29235c">INTEGER</text>
<polygon fill="#e7e2dd" stroke="transparent" points="176.3,-939.96 176.3,-999.96 581.3,-999.96 581.3,-939.96 176.3,-939.96"/>
<polygon fill="none" stroke="#29235c" points="176.3,-939.96 176.3,-999.96 581.3,-999.96 581.3,-939.96 176.3,-939.96"/>
<text text-anchor="start" x="187.3" y="-960.16" font-family="Helvetica,sans-Serif" font-size="32.00" fill="#29235c">inventory_id &#160;&#160;&#160;</text>
<text text-anchor="start" x="428.08" y="-961.16" font-family="Helvetica,sans-Serif" font-style="italic" font-size="32.00" fill="#29235c">INTEGER</text>
<polygon fill="#e7e2dd" stroke="transparent" points="176.3,-879.96 176.3,-939.96 581.3,-939.96 581.3,-879.96 176.3,-879.96"/>
<polygon fill="none" stroke="#29235c" points="176.3,-879.96 176.3,-939.96 581.3,-939.96 581.3,-879.96 176.3,-879.96"/>
<text text-anchor="start" x="187.3" y="-900.16" font-family="Helvetica,sans-Serif" font-size="32.00" fill="#29235c">service_id &#160;&#160;&#160;</text>
<text text-anchor="start" x="428.08" y="-901.16" font-family="Helvetica,sans-Serif" font-style="italic" font-size="32.00" fill="#29235c">INTEGER</text>
<polygon fill="#e7e2dd" stroke="transparent" points="176.3,-819.96 176.3,-879.96 581.3,-879.96 581.3,-819.96 176.3,-819.96"/>
<polygon fill="none" stroke="#29235c" points="176.3,-819.96 176.3,-879.96 581.3,-879.96 581.3,-819.96 176.3,-819.96"/>
<text text-anchor="start" x="186.91" y="-840.16" font-family="Helvetica,sans-Serif" font-size="32.00" fill="#29235c">maintenance_date &#160;&#160;&#160;</text>
<text text-anchor="start" x="485.14" y="-841.16" font-family="Helvetica,sans-Serif" font-style="italic" font-size="32.00" fill="#29235c">DATE</text>
<polygon fill="none" stroke="#29235c" stroke-width="2" points="174.8,-818.96 174.8,-1120.96 581.8,-1120.96 581.8,-818.96 174.8,-818.96"/>
</g>
<!-- Maintenance&#45;&gt;CarInventory -->
<!-- Maintenance&#45;&gt;CarInventory -->
<g id="edge14" class="edge">
<title>Maintenance:e&#45;&gt;CarInventory:w</title>
<path fill="none" stroke="#29235c" stroke-width="3" d="M582.3,-969.96C753.6,-969.96 704.9,-1219.41 867.17,-1229.64"/>
<polygon fill="#29235c" stroke="#29235c" stroke-width="3" points="867.54,-1233.15 877.65,-1229.96 867.76,-1226.15 867.54,-1233.15"/>
<text text-anchor="middle" x="883.87" y="-1239.56" font-family="Helvetica,sans-Serif" font-size="32.00" fill="#29235c">*</text>
<text text-anchor="middle" x="573.41" y="-941.16" font-family="Helvetica,sans-Serif" font-size="32.00" fill="#29235c">1</text>
</g>
<!-- Service -->
<g id="Service" class="node">
<title>Service</title>
<ellipse fill="none" stroke="black" stroke-width="0" cx="1055.65" cy="-619.96" rx="263.09" ry="172.57"/>
<polygon fill="#1d71b8" stroke="transparent" points="871.65,-679.96 871.65,-739.96 1239.65,-739.96 1239.65,-679.96 871.65,-679.96"/>
<polygon fill="none" stroke="#29235c" points="871.65,-679.96 871.65,-739.96 1239.65,-739.96 1239.65,-679.96 871.65,-679.96"/>
<text text-anchor="start" x="940.06" y="-701.16" font-family="Helvetica,sans-Serif" font-weight="bold" font-size="32.00" fill="#ffffff"> &#160;&#160;&#160;&#160;&#160;&#160;Service &#160;&#160;&#160;&#160;&#160;&#160;</text>
<polygon fill="#e7e2dd" stroke="transparent" points="871.65,-619.96 871.65,-679.96 1239.65,-679.96 1239.65,-619.96 871.65,-619.96"/>
<polygon fill="none" stroke="#29235c" points="871.65,-619.96 871.65,-679.96 1239.65,-679.96 1239.65,-619.96 871.65,-619.96"/>
<text text-anchor="start" x="882.65" y="-641.16" font-family="Helvetica,sans-Serif" font-weight="bold" font-size="32.00" fill="#29235c">id</text>
<text text-anchor="start" x="907.54" y="-641.16" font-family="Helvetica,sans-Serif" font-size="32.00" fill="#29235c"> &#160;&#160;&#160;</text>
<text text-anchor="start" x="1086.43" y="-641.16" font-family="Helvetica,sans-Serif" font-style="italic" font-size="32.00" fill="#29235c">INTEGER</text>
<polygon fill="#e7e2dd" stroke="transparent" points="871.65,-559.96 871.65,-619.96 1239.65,-619.96 1239.65,-559.96 871.65,-559.96"/>
<polygon fill="none" stroke="#29235c" points="871.65,-559.96 871.65,-619.96 1239.65,-619.96 1239.65,-559.96 871.65,-559.96"/>
<text text-anchor="start" x="882.52" y="-580.16" font-family="Helvetica,sans-Serif" font-size="32.00" fill="#29235c">description &#160;&#160;&#160;</text>
<text text-anchor="start" x="1072.44" y="-581.16" font-family="Helvetica,sans-Serif" font-style="italic" font-size="32.00" fill="#29235c">VARCHAR</text>
<polygon fill="#e7e2dd" stroke="transparent" points="871.65,-499.96 871.65,-559.96 1239.65,-559.96 1239.65,-499.96 871.65,-499.96"/>
<polygon fill="none" stroke="#29235c" points="871.65,-499.96 871.65,-559.96 1239.65,-559.96 1239.65,-499.96 871.65,-499.96"/>
<text text-anchor="start" x="882.65" y="-520.16" font-family="Helvetica,sans-Serif" font-size="32.00" fill="#29235c">cost &#160;&#160;&#160;</text>
<text text-anchor="start" x="1125.53" y="-521.16" font-family="Helvetica,sans-Serif" font-style="italic" font-size="32.00" fill="#29235c">FLOAT</text>
<polygon fill="none" stroke="#29235c" stroke-width="2" points="870.65,-498.96 870.65,-740.96 1240.65,-740.96 1240.65,-498.96 870.65,-498.96"/>
</g>
<!-- Maintenance&#45;&gt;Service -->
<!-- Maintenance&#45;&gt;Service -->
<g id="edge16" class="edge">
<title>Maintenance:e&#45;&gt;Service:w</title>
<path fill="none" stroke="#29235c" stroke-width="3" d="M582.3,-909.96C665.3,-909.96 775.59,-669.39 860.66,-651.06"/>
<polygon fill="#29235c" stroke="#29235c" stroke-width="3" points="861.09,-654.54 870.65,-649.96 860.32,-647.58 861.09,-654.54"/>
<text text-anchor="middle" x="876.87" y="-621.16" font-family="Helvetica,sans-Serif" font-size="32.00" fill="#29235c">*</text>
<text text-anchor="middle" x="573.41" y="-881.16" font-family="Helvetica,sans-Serif" font-size="32.00" fill="#29235c">1</text>
</g>
<!-- Sale -->
<g id="Sale" class="node">
<title>Sale</title>
<ellipse fill="none" stroke="black" stroke-width="0" cx="378.3" cy="-456.96" rx="266.66" ry="257.27"/>
<polygon fill="#1d71b8" stroke="transparent" points="192.3,-576.96 192.3,-636.96 565.3,-636.96 565.3,-576.96 192.3,-576.96"/>
<polygon fill="none" stroke="#29235c" points="192.3,-576.96 192.3,-636.96 565.3,-636.96 565.3,-576.96 192.3,-576.96"/>
<text text-anchor="start" x="284.54" y="-598.16" font-family="Helvetica,sans-Serif" font-weight="bold" font-size="32.00" fill="#ffffff"> &#160;&#160;&#160;&#160;&#160;&#160;Sale &#160;&#160;&#160;&#160;&#160;&#160;</text>
<polygon fill="#e7e2dd" stroke="transparent" points="192.3,-516.96 192.3,-576.96 565.3,-576.96 565.3,-516.96 192.3,-516.96"/>
<polygon fill="none" stroke="#29235c" points="192.3,-516.96 192.3,-576.96 565.3,-576.96 565.3,-516.96 192.3,-516.96"/>
<text text-anchor="start" x="203.3" y="-538.16" font-family="Helvetica,sans-Serif" font-weight="bold" font-size="32.00" fill="#29235c">id</text>
<text text-anchor="start" x="228.19" y="-538.16" font-family="Helvetica,sans-Serif" font-size="32.00" fill="#29235c"> &#160;&#160;&#160;</text>
<text text-anchor="start" x="412.08" y="-538.16" font-family="Helvetica,sans-Serif" font-style="italic" font-size="32.00" fill="#29235c">INTEGER</text>
<polygon fill="#e7e2dd" stroke="transparent" points="192.3,-456.96 192.3,-516.96 565.3,-516.96 565.3,-456.96 192.3,-456.96"/>
<polygon fill="none" stroke="#29235c" points="192.3,-456.96 192.3,-516.96 565.3,-516.96 565.3,-456.96 192.3,-456.96"/>
<text text-anchor="start" x="202.89" y="-477.16" font-family="Helvetica,sans-Serif" font-size="32.00" fill="#29235c">customer_id &#160;&#160;&#160;</text>
<text text-anchor="start" x="412.19" y="-478.16" font-family="Helvetica,sans-Serif" font-style="italic" font-size="32.00" fill="#29235c">INTEGER</text>
<polygon fill="#e7e2dd" stroke="transparent" points="192.3,-396.96 192.3,-456.96 565.3,-456.96 565.3,-396.96 192.3,-396.96"/>
<polygon fill="none" stroke="#29235c" points="192.3,-396.96 192.3,-456.96 565.3,-456.96 565.3,-396.96 192.3,-396.96"/>
<text text-anchor="start" x="203.3" y="-417.16" font-family="Helvetica,sans-Serif" font-size="32.00" fill="#29235c">inventory_id &#160;&#160;&#160;</text>
<text text-anchor="start" x="412.19" y="-418.16" font-family="Helvetica,sans-Serif" font-style="italic" font-size="32.00" fill="#29235c">INTEGER</text>
<polygon fill="#e7e2dd" stroke="transparent" points="192.3,-336.96 192.3,-396.96 565.3,-396.96 565.3,-336.96 192.3,-336.96"/>
<polygon fill="none" stroke="#29235c" points="192.3,-336.96 192.3,-396.96 565.3,-396.96 565.3,-336.96 192.3,-336.96"/>
<text text-anchor="start" x="203.3" y="-357.16" font-family="Helvetica,sans-Serif" font-size="32.00" fill="#29235c">sale_date &#160;&#160;&#160;</text>
<text text-anchor="start" x="468.97" y="-358.16" font-family="Helvetica,sans-Serif" font-style="italic" font-size="32.00" fill="#29235c">DATE</text>
<polygon fill="#e7e2dd" stroke="transparent" points="192.3,-276.96 192.3,-336.96 565.3,-336.96 565.3,-276.96 192.3,-276.96"/>
<polygon fill="none" stroke="#29235c" points="192.3,-276.96 192.3,-336.96 565.3,-336.96 565.3,-276.96 192.3,-276.96"/>
<text text-anchor="start" x="203.3" y="-297.16" font-family="Helvetica,sans-Serif" font-size="32.00" fill="#29235c">sale_amount &#160;&#160;&#160;</text>
<text text-anchor="start" x="451.18" y="-298.16" font-family="Helvetica,sans-Serif" font-style="italic" font-size="32.00" fill="#29235c">FLOAT</text>
<polygon fill="none" stroke="#29235c" stroke-width="2" points="190.8,-275.96 190.8,-637.96 565.8,-637.96 565.8,-275.96 190.8,-275.96"/>
</g>
<!-- Sale&#45;&gt;CarInventory -->
<!-- Sale&#45;&gt;CarInventory -->
<g id="edge20" class="edge">
<title>Sale:e&#45;&gt;CarInventory:w</title>
<path fill="none" stroke="#29235c" stroke-width="3" d="M566.3,-426.96C731.39,-426.96 693.61,-593.36 756.6,-745.96 839.89,-947.72 661.64,-1221.26 867.55,-1229.76"/>
<polygon fill="#29235c" stroke="#29235c" stroke-width="3" points="867.58,-1233.26 877.65,-1229.96 867.72,-1226.26 867.58,-1233.26"/>
<text text-anchor="middle" x="871.43" y="-1201.16" font-family="Helvetica,sans-Serif" font-size="32.00" fill="#29235c">*</text>
<text text-anchor="middle" x="557.41" y="-398.16" font-family="Helvetica,sans-Serif" font-size="32.00" fill="#29235c">1</text>
</g>
<!-- Sale&#45;&gt;Customer -->
<!-- Sale&#45;&gt;Customer -->
<g id="edge18" class="edge">
<title>Sale:e&#45;&gt;Customer:w</title>
<path fill="none" stroke="#29235c" stroke-width="3" d="M566.3,-486.96C739.92,-486.96 727.15,-283.16 893.49,-275.2"/>
<polygon fill="#29235c" stroke="#29235c" stroke-width="3" points="893.73,-278.7 903.65,-274.96 893.57,-271.7 893.73,-278.7"/>
<text text-anchor="middle" x="909.87" y="-246.16" font-family="Helvetica,sans-Serif" font-size="32.00" fill="#29235c">*</text>
<text text-anchor="middle" x="557.41" y="-458.16" font-family="Helvetica,sans-Serif" font-size="32.00" fill="#29235c">1</text>
</g>
</g>
</svg>
